<svg xmlns="http://www.w3.org/2000/svg" width="27.006" height="12.402" viewBox="0 0 27.006 12.402">
  <g id="Arrow" transform="translate(37.5 -18) rotate(90)">
    <path id="Vector" d="M6.2,27a1.574,1.574,0,0,1-1.095-.439A1.477,1.477,0,0,1,4.651,25.5V5.112l-2,1.95a1.59,1.59,0,0,1-2.2,0,1.473,1.473,0,0,1,0-2.13L5.1.432A1.565,1.565,0,0,1,5.9.027a1.6,1.6,0,0,1,.893.09,1.539,1.539,0,0,1,.7.549,1.467,1.467,0,0,1,.264.831v24a1.477,1.477,0,0,1-.454,1.061A1.574,1.574,0,0,1,6.2,27Z" transform="translate(18 10.503)" fill="#fff"/>
    <path id="Vector-2" data-name="Vector" d="M6.2,7.506a1.592,1.592,0,0,1-.594-.111,1.553,1.553,0,0,1-.5-.324L.455,2.571A1.483,1.483,0,0,1,0,1.506,1.465,1.465,0,0,1,.118.93,1.5,1.5,0,0,1,.455.441,1.559,1.559,0,0,1,.96.115,1.6,1.6,0,0,1,1.555,0a1.581,1.581,0,0,1,1.1.441L7.3,4.941a1.5,1.5,0,0,1,.339.488,1.457,1.457,0,0,1,0,1.154,1.5,1.5,0,0,1-.339.488,1.553,1.553,0,0,1-.5.324A1.592,1.592,0,0,1,6.2,7.506Z" transform="translate(22.645 10.494)" fill="#fff"/>
  </g>
</svg>
